<?xml version="1.0" encoding="UTF-8"?>
<svg id="Layer_2" xmlns="http://www.w3.org/2000/svg" viewBox="0 0 123.75 40.26">
  <defs>
    <style>
      .cls-1 {
        fill: #fff;
      }
    </style>
  </defs>
  <g id="Layer_2-2" data-name="Layer_2">
    <g>
      <path class="cls-1" d="M2.8,30.69c.9,0,1.68.39,2.13,1.12.84,1.23,2.02,2.91,4.42,2.91,1.85,0,3.19-1.4,3.19-3.02,0-2.3-2.13-3.19-4.76-4.09-3.53-1.23-7.5-2.74-7.5-8.51,0-4.76,3.92-8.51,9.07-8.51,4.76,0,9.13,2.91,9.13,6.44,0,1.57-1.29,2.74-2.86,2.74-.62,0-1.4-.22-1.79-1.01-.95-1.06-2.3-2.69-4.48-2.69-1.9,0-3.14,1.4-3.14,3.02,0,2.3,2.35,3.02,5.21,3.98,3.42,1.06,7.28,2.86,7.28,8.46,0,4.7-4.09,8.74-9.35,8.74-4.98,0-9.35-3.25-9.35-6.72,0-1.57,1.23-2.86,2.8-2.86Z"/>
      <path class="cls-1" d="M21.11,14c0-1.62,1.29-2.86,2.86-2.86h2.02v-4.2c0-1.74,1.34-3.08,3.08-3.08s3.08,1.34,3.08,3.08v4.2h6.55c1.57,0,2.86,1.23,2.86,2.86s-1.29,2.86-2.86,2.86h-6.55v10.14c0,4.93,2.74,7.45,6.55,7.45,1.57,0,2.86,1.29,2.86,2.86s-1.29,2.91-2.86,2.91c-7.22,0-12.71-5.1-12.71-13.22v-10.14h-2.02c-1.57,0-2.86-1.29-2.86-2.86Z"/>
      <path class="cls-1" d="M44.69,25.42c0-8.29,6.33-14.84,14.84-14.84s14.84,6.55,14.84,14.84-6.27,14.84-14.84,14.84-14.84-6.55-14.84-14.84ZM68.15,25.42c0-5.04-3.7-9.13-8.62-9.13s-8.62,4.09-8.62,9.13,3.7,9.13,8.62,9.13,8.62-4.14,8.62-9.13Z"/>
      <path class="cls-1" d="M80.36,23.69c0-7.95,5.32-13.1,12.6-13.1,1.57,0,2.86,1.23,2.86,2.86s-1.29,2.86-2.86,2.86c-3.7,0-6.44,2.46-6.44,7.39v13.38c0,1.74-1.34,3.14-3.08,3.14s-3.08-1.4-3.08-3.14v-13.38Z"/>
      <path class="cls-1" d="M100.18,3.08c0-1.74,1.34-3.08,3.08-3.08s3.08,1.34,3.08,3.08v33.99c0,1.74-1.34,3.14-3.08,3.14s-3.08-1.4-3.08-3.14V3.08ZM108.58,27.55c-.45-.62-.84-1.4-.84-2.3,0-.67.34-1.57.84-2.13l9.63-11.48c.62-.67,1.23-1.01,2.13-1.01,1.62,0,2.91,1.18,2.91,2.8,0,.67-.17,1.29-.67,1.85l-8.12,9.69,8.57,10.14c.45.56.73,1.34.73,2.02,0,1.74-1.51,3.08-3.14,3.08-.84,0-1.74-.39-2.3-1.12l-9.74-11.54Z"/>
    </g>
  </g>
</svg>
